<svg viewBox="0 0 15 22" version="1.1" xmlns="http://www.w3.org/2000/svg" xmlns:xlink="http://www.w3.org/1999/xlink">
<title>Vector</title>
<desc>Created using Figma</desc>
<g id="Canvas" transform="translate(-3241 -372)">
<g id="Vector">
<g id="Vector">
<use xlink:href="#path0_fill" transform="translate(3241 372)" fill="#FFFFFF"/>
</g>
</g>
</g>
<defs>
<path id="path0_fill" fill-rule="evenodd" d="M 0 7.46637C 0 3.34937 3.36523 0 7.5 0C 11.6348 0 15 3.34937 15 7.46637C 15 9.12091 14.0215 11.637 11.9219 15.3844C 10.4766 17.9613 9.06055 20.1025 9 20.1925L 7.96875 21.7486C 7.86523 21.9056 7.68945 22 7.5 22C 7.31055 22 7.13477 21.9056 7.03125 21.7486L 6 20.1924C 5.93945 20.1014 4.51172 17.9415 3.07812 15.3844C 0.978516 11.6368 0 9.12073 0 7.46637ZM 4.6875 7.3335C 4.6875 5.81714 5.94922 4.5835 7.5 4.5835C 9.05078 4.5835 10.3125 5.81714 10.3125 7.3335C 10.3125 8.84985 9.05078 10.0835 7.5 10.0835C 5.94922 10.0835 4.6875 8.84985 4.6875 7.3335Z"/>
</defs>
</svg>
