<?xml version="1.0" encoding="UTF-8"?>
<svg width="20px" height="10px" viewBox="0 0 20 10" version="1.1" xmlns="http://www.w3.org/2000/svg" xmlns:xlink="http://www.w3.org/1999/xlink">
    <!-- Generator: Sketch Beta 47 (45392) - http://www.bohemiancoding.com/sketch -->
    <title>Icon</title>
    <desc>Created with Sketch Beta.</desc>
    <defs>
        <radialGradient cx="50%" cy="0%" fx="50%" fy="0%" r="100%" gradientTransform="translate(0.500000,0.000000),scale(0.870370,1.000000),rotate(90.000000),scale(1.000000,2.174399),translate(-0.500000,-0.000000)" id="radialGradient-1">
            <stop stop-color="#FF7C00" offset="0%"></stop>
            <stop stop-color="#F76600" offset="100%"></stop>
        </radialGradient>
        <linearGradient x1="50%" y1="-2.48949813e-15%" x2="50%" y2="100%" id="linearGradient-2">
            <stop stop-color="#F57600" offset="0%"></stop>
            <stop stop-color="#EA6000" offset="100%"></stop>
        </linearGradient>
    </defs>
    <g id="Page-1" stroke="none" stroke-width="1" fill="none" fill-rule="evenodd">
        <g id="GS.Mob.MainPage" transform="translate(-339.000000, -18.000000)" fill="#FF6900">
            <g id="Header" transform="translate(-1.000000, 0.000000)">
                <g id="🔸Menu" transform="translate(322.000000, 0.000000)">
                    <path d="M19.5,25 L36.5,25 C37.3284271,25 38,25.6715729 38,26.5 C38,27.3284271 37.3284271,28 36.5,28 L19.5,28 C18.6715729,28 18,27.3284271 18,26.5 C18,25.6715729 18.6715729,25 19.5,25 L19.5,25 Z M19.5,18 L36.5,18 L36.5,18 C37.3284271,18 38,18.6715729 38,19.5 L38,19.5 C38,20.3284271 37.3284271,21 36.5,21 L19.5,21 C18.6715729,21 18,20.3284271 18,19.5 L18,19.5 L18,19.5 C18,18.6715729 18.6715729,18 19.5,18 L19.5,18 Z" id="Icon"></path>
                </g>
            </g>
        </g>
    </g>
</svg>